<mxfile host="app.diagrams.net" agent="Mozilla/5.0 (Windows NT 10.0; Win64; x64) AppleWebKit/537.36 (KHTML, like Gecko) Chrome/133.0.0.0 Safari/537.36" version="26.1.0">
  <diagram name="Página-1" id="RKhjxJF1t7NuMjDELdcq">
    <mxGraphModel dx="1400" dy="823" grid="1" gridSize="10" guides="1" tooltips="1" connect="1" arrows="1" fold="1" page="1" pageScale="1" pageWidth="827" pageHeight="1169" math="0" shadow="0">
      <root>
        <mxCell id="0" />
        <mxCell id="1" parent="0" />
        <mxCell id="DZwS0F1v1-EuDNPGMqtf-1" value="FIM" style="strokeWidth=2;html=1;shape=mxgraph.flowchart.start_1;whiteSpace=wrap;fillColor=#d5e8d4;strokeColor=#82b366;" vertex="1" parent="1">
          <mxGeometry x="364" y="900" width="100" height="60" as="geometry" />
        </mxCell>
        <mxCell id="DZwS0F1v1-EuDNPGMqtf-2" value="INICIO" style="strokeWidth=2;html=1;shape=mxgraph.flowchart.start_1;whiteSpace=wrap;fillColor=#d5e8d4;strokeColor=#82b366;" vertex="1" parent="1">
          <mxGeometry x="364" y="20" width="100" height="60" as="geometry" />
        </mxCell>
        <mxCell id="DZwS0F1v1-EuDNPGMqtf-18" style="edgeStyle=orthogonalEdgeStyle;rounded=0;orthogonalLoop=1;jettySize=auto;html=1;exitX=0.5;exitY=1;exitDx=0;exitDy=0;entryX=0.5;entryY=0;entryDx=0;entryDy=0;" edge="1" parent="1" source="DZwS0F1v1-EuDNPGMqtf-3" target="DZwS0F1v1-EuDNPGMqtf-6">
          <mxGeometry relative="1" as="geometry" />
        </mxCell>
        <mxCell id="DZwS0F1v1-EuDNPGMqtf-3" value="SALARIO-BASE" style="html=1;strokeWidth=2;shape=manualInput;whiteSpace=wrap;rounded=1;size=26;arcSize=11;fillColor=#dae8fc;strokeColor=#6c8ebf;" vertex="1" parent="1">
          <mxGeometry x="364" y="90" width="100" height="60" as="geometry" />
        </mxCell>
        <mxCell id="DZwS0F1v1-EuDNPGMqtf-19" style="edgeStyle=orthogonalEdgeStyle;rounded=0;orthogonalLoop=1;jettySize=auto;html=1;exitX=0.5;exitY=1;exitDx=0;exitDy=0;entryX=0.5;entryY=0;entryDx=0;entryDy=0;" edge="1" parent="1" source="DZwS0F1v1-EuDNPGMqtf-6" target="DZwS0F1v1-EuDNPGMqtf-7">
          <mxGeometry relative="1" as="geometry" />
        </mxCell>
        <mxCell id="DZwS0F1v1-EuDNPGMqtf-6" value="GRATIFICAÇÃO =&amp;nbsp; 10%&lt;div&gt;IR = 0&lt;/div&gt;" style="rounded=1;whiteSpace=wrap;html=1;absoluteArcSize=1;arcSize=14;strokeWidth=2;fillColor=#f5f5f5;fontColor=#333333;strokeColor=#666666;" vertex="1" parent="1">
          <mxGeometry x="336" y="170" width="156" height="50" as="geometry" />
        </mxCell>
        <mxCell id="DZwS0F1v1-EuDNPGMqtf-7" value="SALARIO-BRUTO = SALARIO-BASE + (SALARIO-BASE * 10%)" style="rounded=1;whiteSpace=wrap;html=1;absoluteArcSize=1;arcSize=14;strokeWidth=2;fillColor=#f5f5f5;fontColor=#333333;strokeColor=#666666;" vertex="1" parent="1">
          <mxGeometry x="207.5" y="240" width="413" height="50" as="geometry" />
        </mxCell>
        <mxCell id="DZwS0F1v1-EuDNPGMqtf-8" value="SALARIO-BRUTO &amp;gt; 1200" style="strokeWidth=2;html=1;shape=mxgraph.flowchart.decision;whiteSpace=wrap;fillColor=#ffe6cc;strokeColor=#d79b00;" vertex="1" parent="1">
          <mxGeometry x="329" y="310" width="170" height="100" as="geometry" />
        </mxCell>
        <mxCell id="DZwS0F1v1-EuDNPGMqtf-9" value="IR = SALARIO-BRUTO * 20%" style="rounded=1;whiteSpace=wrap;html=1;absoluteArcSize=1;arcSize=14;strokeWidth=2;fillColor=#f5f5f5;fontColor=#333333;strokeColor=#666666;" vertex="1" parent="1">
          <mxGeometry x="561" y="400" width="179" height="60" as="geometry" />
        </mxCell>
        <mxCell id="DZwS0F1v1-EuDNPGMqtf-10" style="edgeStyle=orthogonalEdgeStyle;rounded=0;orthogonalLoop=1;jettySize=auto;html=1;exitX=1;exitY=0.5;exitDx=0;exitDy=0;exitPerimeter=0;entryX=0.537;entryY=-0.013;entryDx=0;entryDy=0;entryPerimeter=0;" edge="1" parent="1" source="DZwS0F1v1-EuDNPGMqtf-8" target="DZwS0F1v1-EuDNPGMqtf-9">
          <mxGeometry relative="1" as="geometry" />
        </mxCell>
        <mxCell id="DZwS0F1v1-EuDNPGMqtf-11" value="S" style="edgeLabel;html=1;align=center;verticalAlign=middle;resizable=0;points=[];" vertex="1" connectable="0" parent="DZwS0F1v1-EuDNPGMqtf-10">
          <mxGeometry x="0.1426" y="2" relative="1" as="geometry">
            <mxPoint as="offset" />
          </mxGeometry>
        </mxCell>
        <mxCell id="DZwS0F1v1-EuDNPGMqtf-12" value="IR = SALARIO-BRUTO * 15%" style="rounded=1;whiteSpace=wrap;html=1;absoluteArcSize=1;arcSize=14;strokeWidth=2;fillColor=#f5f5f5;fontColor=#333333;strokeColor=#666666;" vertex="1" parent="1">
          <mxGeometry x="100" y="400" width="180" height="60" as="geometry" />
        </mxCell>
        <mxCell id="DZwS0F1v1-EuDNPGMqtf-13" value="N" style="edgeStyle=orthogonalEdgeStyle;rounded=0;orthogonalLoop=1;jettySize=auto;html=1;exitX=0;exitY=0.5;exitDx=0;exitDy=0;exitPerimeter=0;entryX=0.463;entryY=0.007;entryDx=0;entryDy=0;entryPerimeter=0;" edge="1" parent="1" source="DZwS0F1v1-EuDNPGMqtf-8" target="DZwS0F1v1-EuDNPGMqtf-12">
          <mxGeometry relative="1" as="geometry" />
        </mxCell>
        <mxCell id="DZwS0F1v1-EuDNPGMqtf-14" value="" style="strokeWidth=2;html=1;shape=mxgraph.flowchart.start_2;whiteSpace=wrap;fillColor=#f5f5f5;gradientColor=#b3b3b3;strokeColor=#666666;" vertex="1" parent="1">
          <mxGeometry x="396" y="540" width="36" height="40" as="geometry" />
        </mxCell>
        <mxCell id="DZwS0F1v1-EuDNPGMqtf-15" style="edgeStyle=orthogonalEdgeStyle;rounded=0;orthogonalLoop=1;jettySize=auto;html=1;exitX=0.5;exitY=1;exitDx=0;exitDy=0;entryX=0;entryY=0.5;entryDx=0;entryDy=0;entryPerimeter=0;" edge="1" parent="1" source="DZwS0F1v1-EuDNPGMqtf-12" target="DZwS0F1v1-EuDNPGMqtf-14">
          <mxGeometry relative="1" as="geometry" />
        </mxCell>
        <mxCell id="DZwS0F1v1-EuDNPGMqtf-16" style="edgeStyle=orthogonalEdgeStyle;rounded=0;orthogonalLoop=1;jettySize=auto;html=1;exitX=0.5;exitY=1;exitDx=0;exitDy=0;entryX=1;entryY=0.5;entryDx=0;entryDy=0;entryPerimeter=0;" edge="1" parent="1" source="DZwS0F1v1-EuDNPGMqtf-9" target="DZwS0F1v1-EuDNPGMqtf-14">
          <mxGeometry relative="1" as="geometry" />
        </mxCell>
        <mxCell id="DZwS0F1v1-EuDNPGMqtf-17" style="edgeStyle=orthogonalEdgeStyle;rounded=0;orthogonalLoop=1;jettySize=auto;html=1;exitX=0.5;exitY=1;exitDx=0;exitDy=0;exitPerimeter=0;entryX=0.5;entryY=0.167;entryDx=0;entryDy=0;entryPerimeter=0;" edge="1" parent="1" source="DZwS0F1v1-EuDNPGMqtf-2" target="DZwS0F1v1-EuDNPGMqtf-3">
          <mxGeometry relative="1" as="geometry" />
        </mxCell>
        <mxCell id="DZwS0F1v1-EuDNPGMqtf-20" style="edgeStyle=orthogonalEdgeStyle;rounded=0;orthogonalLoop=1;jettySize=auto;html=1;exitX=0.5;exitY=1;exitDx=0;exitDy=0;entryX=0.5;entryY=0;entryDx=0;entryDy=0;entryPerimeter=0;" edge="1" parent="1" source="DZwS0F1v1-EuDNPGMqtf-7" target="DZwS0F1v1-EuDNPGMqtf-8">
          <mxGeometry relative="1" as="geometry" />
        </mxCell>
        <mxCell id="DZwS0F1v1-EuDNPGMqtf-21" value="SALARIO-BASE" style="strokeWidth=2;html=1;shape=mxgraph.flowchart.display;whiteSpace=wrap;fillColor=#e1d5e7;strokeColor=#9673a6;" vertex="1" parent="1">
          <mxGeometry x="364" y="600" width="100" height="60" as="geometry" />
        </mxCell>
        <mxCell id="DZwS0F1v1-EuDNPGMqtf-22" value="IR" style="strokeWidth=2;html=1;shape=mxgraph.flowchart.display;whiteSpace=wrap;fillColor=#e1d5e7;strokeColor=#9673a6;" vertex="1" parent="1">
          <mxGeometry x="364" y="810" width="100" height="60" as="geometry" />
        </mxCell>
        <mxCell id="DZwS0F1v1-EuDNPGMqtf-23" value="SALARIO-BRUTO" style="strokeWidth=2;html=1;shape=mxgraph.flowchart.display;whiteSpace=wrap;fillColor=#e1d5e7;strokeColor=#9673a6;" vertex="1" parent="1">
          <mxGeometry x="364" y="740" width="100" height="60" as="geometry" />
        </mxCell>
        <mxCell id="DZwS0F1v1-EuDNPGMqtf-24" value="GRATIFICAÇÃO" style="strokeWidth=2;html=1;shape=mxgraph.flowchart.display;whiteSpace=wrap;fillColor=#e1d5e7;strokeColor=#9673a6;" vertex="1" parent="1">
          <mxGeometry x="364" y="670" width="100" height="60" as="geometry" />
        </mxCell>
        <mxCell id="DZwS0F1v1-EuDNPGMqtf-25" style="edgeStyle=orthogonalEdgeStyle;rounded=0;orthogonalLoop=1;jettySize=auto;html=1;exitX=0.5;exitY=1;exitDx=0;exitDy=0;exitPerimeter=0;entryX=0.5;entryY=0;entryDx=0;entryDy=0;entryPerimeter=0;" edge="1" parent="1" source="DZwS0F1v1-EuDNPGMqtf-14" target="DZwS0F1v1-EuDNPGMqtf-21">
          <mxGeometry relative="1" as="geometry" />
        </mxCell>
        <mxCell id="DZwS0F1v1-EuDNPGMqtf-26" style="edgeStyle=orthogonalEdgeStyle;rounded=0;orthogonalLoop=1;jettySize=auto;html=1;exitX=0.5;exitY=1;exitDx=0;exitDy=0;exitPerimeter=0;entryX=0.5;entryY=0;entryDx=0;entryDy=0;entryPerimeter=0;" edge="1" parent="1" source="DZwS0F1v1-EuDNPGMqtf-21" target="DZwS0F1v1-EuDNPGMqtf-24">
          <mxGeometry relative="1" as="geometry" />
        </mxCell>
        <mxCell id="DZwS0F1v1-EuDNPGMqtf-27" style="edgeStyle=orthogonalEdgeStyle;rounded=0;orthogonalLoop=1;jettySize=auto;html=1;exitX=0.5;exitY=1;exitDx=0;exitDy=0;exitPerimeter=0;entryX=0.5;entryY=0;entryDx=0;entryDy=0;entryPerimeter=0;" edge="1" parent="1" source="DZwS0F1v1-EuDNPGMqtf-24" target="DZwS0F1v1-EuDNPGMqtf-23">
          <mxGeometry relative="1" as="geometry" />
        </mxCell>
        <mxCell id="DZwS0F1v1-EuDNPGMqtf-28" style="edgeStyle=orthogonalEdgeStyle;rounded=0;orthogonalLoop=1;jettySize=auto;html=1;exitX=0.5;exitY=1;exitDx=0;exitDy=0;exitPerimeter=0;entryX=0.5;entryY=0;entryDx=0;entryDy=0;entryPerimeter=0;" edge="1" parent="1" source="DZwS0F1v1-EuDNPGMqtf-23" target="DZwS0F1v1-EuDNPGMqtf-22">
          <mxGeometry relative="1" as="geometry" />
        </mxCell>
        <mxCell id="DZwS0F1v1-EuDNPGMqtf-29" style="edgeStyle=orthogonalEdgeStyle;rounded=0;orthogonalLoop=1;jettySize=auto;html=1;exitX=0.5;exitY=1;exitDx=0;exitDy=0;exitPerimeter=0;entryX=0.5;entryY=0;entryDx=0;entryDy=0;entryPerimeter=0;" edge="1" parent="1" source="DZwS0F1v1-EuDNPGMqtf-22" target="DZwS0F1v1-EuDNPGMqtf-1">
          <mxGeometry relative="1" as="geometry" />
        </mxCell>
      </root>
    </mxGraphModel>
  </diagram>
</mxfile>
